<svg width="216" height="47" viewBox="0 0 216 47" fill="none" xmlns="http://www.w3.org/2000/svg">
<g clip-path="url(#clip0_36_100)">
<mask id="mask0_36_100" style="mask-type:luminance" maskUnits="userSpaceOnUse" x="0" y="0" width="52" height="47">
<path d="M51.7772 0H0V46.65H51.7772V0Z" fill="white"/>
</mask>
<g mask="url(#mask0_36_100)">
<path fill-rule="evenodd" clip-rule="evenodd" d="M34.1638 12.8158C34.1638 13.466 34.6953 13.9931 35.351 13.9931H39.6612C40.3169 13.9931 40.8484 13.466 40.8484 12.8158V8.54126C40.8484 7.89105 40.3169 7.36395 39.6612 7.36395H35.351C34.6953 7.36395 34.1638 7.89105 34.1638 8.54126V12.8158Z" fill="#0062FF"/>
<path fill-rule="evenodd" clip-rule="evenodd" d="M19.9334 28.1208C17.5319 28.1208 15.5805 26.1894 15.5805 23.8078C15.5805 21.4263 17.5281 19.491 19.9334 19.491C22.3388 19.491 24.2824 21.4224 24.2824 23.8078C24.2824 26.1933 22.3349 28.1208 19.9334 28.1208ZM45.7755 20.0835H29.3453C27.8517 16.3785 24.2049 13.7584 19.9373 13.7584C14.339 13.7584 9.79988 18.256 9.79988 23.8078C9.79988 29.3597 14.3351 33.8535 19.9373 33.8535C24.2049 33.8535 27.8517 31.2334 29.3453 27.5283H37.5856C35.8592 35.604 28.6276 41.6637 19.9644 41.6637C10.0171 41.6637 1.95144 33.6688 1.95144 23.804C1.95144 13.9392 10.0133 5.94811 19.9644 5.94811C25.3804 5.94811 30.2299 8.31813 33.5314 12.0655V8.12575C33.5314 7.34473 34.1716 6.71375 34.9552 6.71375H38.3189C34.2569 3.13565 28.9069 0.961853 23.0449 0.961853C10.3159 0.9657 0 11.1922 0 23.8078C0 36.4235 10.3159 46.65 23.041 46.65C34.4858 46.65 43.9792 38.3742 45.7716 27.5283V27.5206C45.8143 27.2782 45.8453 27.0358 45.8763 26.7934C45.888 26.6896 45.9035 26.5895 45.9151 26.4857C45.9423 26.274 45.9617 26.0663 45.9811 25.8547C45.9966 25.6815 46.0082 25.5084 46.0199 25.3391C46.0315 25.1775 46.0432 25.0198 46.0509 24.8543C46.0664 24.5042 46.0781 24.158 46.0781 23.804C46.0781 22.5382 45.9694 21.2916 45.7677 20.0835H45.7755Z" fill="#0062FF"/>
<path fill-rule="evenodd" clip-rule="evenodd" d="M45.4496 10.8343C45.4496 11.2499 45.791 11.5923 46.21 11.5923H48.9723C49.3913 11.5923 49.7327 11.2537 49.7327 10.8343V8.09882C49.7327 7.6833 49.3951 7.34473 48.9723 7.34473H46.21C45.791 7.34473 45.4496 7.6833 45.4496 8.09882V10.8343Z" fill="#6DA6FF"/>
<path fill-rule="evenodd" clip-rule="evenodd" d="M39.4517 4.57074C39.4517 5.04398 39.8357 5.42103 40.3129 5.42103H43.4321C43.9093 5.42103 44.2895 5.04013 44.2895 4.57074V1.47742C44.2895 1.00418 43.9054 0.627136 43.4321 0.627136H40.3129C39.8357 0.627136 39.4517 1.00803 39.4517 1.47742V4.57074Z" fill="#3C87FF"/>
<path fill-rule="evenodd" clip-rule="evenodd" d="M48.7278 2.48544C48.7278 2.78169 48.9722 3.02407 49.2709 3.02407H51.2379C51.5211 3.02407 51.75 2.80862 51.7772 2.5393V0.484775C51.75 0.215456 51.5211 0 51.2379 0H49.2709C48.9683 0 48.7278 0.242388 48.7278 0.534792V2.48544Z" fill="#9EC4FF"/>
</g>
<path d="M197.557 24.3118L204.785 7.48706H208.273L215.361 24.3118H211.78L210.364 20.853H202.508L201.045 24.3118H197.557ZM203.714 17.9521H209.153L206.457 11.4307L203.714 17.9521Z" fill="black"/>
<path d="M188.025 24.3118V7.48706H198.853V10.5073H191.323V14.4701H198.341V17.3519H191.323V24.3118H188.021H188.025Z" fill="black"/>
<path d="M167.882 15.8975C167.882 11.0113 171.855 7.14081 176.898 7.14081C181.942 7.14081 185.938 11.0113 185.938 15.8975C185.938 20.7838 181.942 24.6543 176.898 24.6543C171.855 24.6543 167.882 20.8069 167.882 15.8975ZM171.44 15.8975C171.44 19.0332 173.833 21.4994 176.902 21.4994C179.971 21.4994 182.388 19.0332 182.388 15.8975C182.388 12.7619 179.971 10.2957 176.902 10.2957C173.833 10.2957 171.44 12.7619 171.44 15.8975Z" fill="black"/>
<path d="M165.795 7.48706V24.3118H162.493V17.2595H155.126V24.3118H151.824V7.48706H155.126V14.2162H162.493V7.48706H165.795Z" fill="black"/>
<path d="M141.093 24.3118V10.5073H135.747V7.48706H149.761V10.5073H144.414V24.3118H141.09H141.093Z" fill="black"/>
<path d="M111.519 24.3118L118.049 15.6244L112.121 7.48706H116.186L120.299 13.3659L124.411 7.48706H128.43L122.483 15.6474L129.036 24.3118H124.9L120.229 17.9059L115.558 24.3118H111.515H111.519Z" fill="#0062FF"/>
<path d="M110.018 7.48706V24.3118H106.67L98.1423 12.6965H98.0492V24.3118H94.7477V7.48706H98.0725L106.6 19.0332H106.716V7.48706H110.018Z" fill="black"/>
<path d="M81.4484 24.3118V7.48706H92.323V10.5073H84.7461V14.3547H91.9272L91.904 17.2364H84.7461V21.2916H92.6721V24.3118H81.4484Z" fill="black"/>
<path d="M71.4002 17.9059V15.0242H79.3496C79.6289 20.6953 76.2342 24.6581 71.0511 24.6581C65.8679 24.6581 62.0116 20.8107 62.0116 15.9014C62.0116 10.9921 65.961 7.14465 71.0045 7.14465C74.3061 7.14465 77.1382 8.75672 78.3486 11.3383L75.373 12.8812C74.3953 11.1768 72.9094 10.2995 71.0278 10.2995C67.9358 10.2995 65.5653 12.7196 65.5653 15.9014C65.5653 19.0832 67.959 21.5032 71.0744 21.5032C73.5379 21.5032 75.4661 19.9835 75.6756 17.9097H71.4002V17.9059Z" fill="black"/>
<path d="M202.127 39.5092C201.763 39.5092 201.425 39.4207 201.115 39.2437C200.816 39.0667 200.576 38.8321 200.401 38.5358C200.223 38.228 200.133 37.8933 200.133 37.5316V37.0699H201.48V37.5316C201.48 37.7086 201.542 37.8625 201.662 37.9933C201.794 38.1126 201.949 38.1741 202.127 38.1741H210.112C210.29 38.1741 210.438 38.1126 210.562 37.9933C210.694 37.8625 210.76 37.7086 210.76 37.5316V34.8769C210.76 34.6999 210.694 34.5537 210.562 34.4306C210.441 34.3113 210.29 34.2498 210.112 34.2498H202.127C201.763 34.2498 201.425 34.1613 201.115 33.9843C200.816 33.7958 200.576 33.5572 200.401 33.2571C200.223 32.9609 200.133 32.63 200.133 32.2683V29.6136C200.133 29.252 200.223 28.9211 200.401 28.6248C200.579 28.317 200.816 28.0747 201.115 27.8977C201.425 27.7207 201.763 27.6322 202.127 27.6322H210.112C210.476 27.6322 210.81 27.7207 211.109 27.8977C211.419 28.0747 211.663 28.317 211.842 28.6248C212.02 28.9211 212.11 29.252 212.11 29.6136V30.0753H210.763V29.6136C210.763 29.4366 210.697 29.2904 210.566 29.1673C210.445 29.0365 210.294 28.9711 210.116 28.9711H202.131C201.953 28.9711 201.798 29.0365 201.666 29.1673C201.545 29.2866 201.483 29.4366 201.483 29.6136V32.2683C201.483 32.4453 201.545 32.5915 201.666 32.7146C201.798 32.8339 201.953 32.8955 202.131 32.8955H210.116C210.48 32.8955 210.814 32.9878 211.113 33.1763C211.423 33.3533 211.667 33.588 211.846 33.8843C212.024 34.1805 212.114 34.5114 212.114 34.8731V37.5278C212.114 37.8894 212.024 38.2242 211.846 38.5319C211.667 38.8282 211.423 39.0667 211.113 39.2399C210.814 39.4169 210.48 39.5053 210.116 39.5053H202.131L202.127 39.5092Z" fill="#555555"/>
<path d="M187.517 39.5092V27.636H198.442V28.9711H188.863V32.8955H196.564V34.2498H188.863V38.1741H198.442V39.5092H187.517Z" fill="#555555"/>
<path d="M184.095 39.5092V27.636H185.461V39.5092H184.095Z" fill="#555555"/>
<path d="M172.119 39.5092C171.754 39.5092 171.416 39.4207 171.106 39.2437C170.807 39.0667 170.567 38.8321 170.392 38.5358C170.214 38.228 170.125 37.8933 170.125 37.5316V29.6136C170.125 29.252 170.214 28.9211 170.392 28.6248C170.571 28.317 170.807 28.0747 171.106 27.8977C171.416 27.7207 171.754 27.6322 172.119 27.6322H180.103C180.468 27.6322 180.801 27.7207 181.1 27.8977C181.41 28.0747 181.655 28.317 181.833 28.6248C182.012 28.9211 182.101 29.252 182.101 29.6136V30.0907H180.755V29.6136C180.755 29.4366 180.689 29.2904 180.557 29.1673C180.437 29.0365 180.285 28.9711 180.107 28.9711H172.123C171.944 28.9711 171.789 29.0365 171.657 29.1673C171.537 29.2866 171.475 29.4366 171.475 29.6136V37.5316C171.475 37.7086 171.537 37.8625 171.657 37.9933C171.789 38.1126 171.944 38.1741 172.123 38.1741H180.107C180.285 38.1741 180.433 38.1126 180.557 37.9933C180.689 37.8625 180.755 37.7086 180.755 37.5316V34.596H177.795V33.2417H182.101V37.5316C182.101 37.8933 182.012 38.228 181.833 38.5358C181.655 38.8321 181.41 39.0706 181.1 39.2437C180.801 39.4207 180.468 39.5092 180.103 39.5092H172.119Z" fill="#555555"/>
<path d="M158.311 39.5092C157.946 39.5092 157.609 39.4207 157.299 39.2437C157 39.0667 156.759 38.8321 156.585 38.5358C156.406 38.228 156.317 37.8933 156.317 37.5316V29.6136C156.317 29.252 156.406 28.9211 156.585 28.6248C156.763 28.317 157 28.0747 157.299 27.8977C157.609 27.7207 157.946 27.6322 158.311 27.6322H166.295C166.66 27.6322 166.994 27.7207 167.292 27.8977C167.603 28.0747 167.847 28.317 168.026 28.6248C168.204 28.9211 168.293 29.252 168.293 29.6136V37.5316C168.293 37.8933 168.204 38.228 168.026 38.5358C167.847 38.8321 167.603 39.0706 167.292 39.2437C166.994 39.4207 166.66 39.5092 166.295 39.5092H158.311ZM158.311 38.1741H166.295C166.474 38.1741 166.621 38.1126 166.745 37.9933C166.877 37.8625 166.943 37.7086 166.943 37.5316V29.6136C166.943 29.4366 166.877 29.2904 166.745 29.1673C166.625 29.0365 166.474 28.9711 166.295 28.9711H158.311C158.133 28.9711 157.977 29.0365 157.846 29.1673C157.725 29.2866 157.663 29.4366 157.663 29.6136V37.5316C157.663 37.7086 157.725 37.8625 157.846 37.9933C157.977 38.1126 158.133 38.1741 158.311 38.1741Z" fill="#555555"/>
<path d="M143.406 39.5092V27.6168H144.752V38.1703H155.378V39.5054H143.406V39.5092Z" fill="#555555"/>
<path d="M131.581 39.5092C131.216 39.5092 130.878 39.4207 130.568 39.2437C130.269 39.0667 130.029 38.8321 129.854 38.5358C129.676 38.228 129.587 37.8933 129.587 37.5316V29.6136C129.587 29.252 129.676 28.9211 129.854 28.6248C130.033 28.317 130.269 28.0747 130.568 27.8977C130.878 27.7207 131.216 27.6322 131.581 27.6322H139.565C139.93 27.6322 140.263 27.7207 140.562 27.8977C140.872 28.0747 141.117 28.317 141.295 28.6248C141.474 28.9211 141.563 29.252 141.563 29.6136V37.5316C141.563 37.8933 141.474 38.228 141.295 38.5358C141.117 38.8321 140.872 39.0706 140.562 39.2437C140.263 39.4207 139.93 39.5092 139.565 39.5092H131.581ZM131.581 38.1741H139.565C139.743 38.1741 139.891 38.1126 140.015 37.9933C140.147 37.8625 140.213 37.7086 140.213 37.5316V29.6136C140.213 29.4366 140.147 29.2904 140.015 29.1673C139.895 29.0365 139.743 28.9711 139.565 28.9711H131.581C131.402 28.9711 131.247 29.0365 131.115 29.1673C130.995 29.2866 130.933 29.4366 130.933 29.6136V37.5316C130.933 37.7086 130.995 37.8625 131.115 37.9933C131.247 38.1126 131.402 38.1741 131.581 38.1741Z" fill="#555555"/>
<path d="M115.783 39.5092V27.636H117.63L126.409 37.9933V27.636H127.755V39.5092H125.909L117.129 29.1519V39.5092H115.783Z" fill="#555555"/>
<path d="M101.653 39.5092V27.636H103V32.8955H112.563V27.636H113.928V39.5092H112.563V34.2498H103V39.5092H101.653Z" fill="#555555"/>
<path d="M89.9564 39.5092C89.5917 39.5092 89.2542 39.4207 88.9438 39.2437C88.6451 39.0667 88.4046 38.8321 88.23 38.5358C88.0515 38.228 87.9623 37.8933 87.9623 37.5316V29.6136C87.9623 29.252 88.0515 28.9211 88.23 28.6248C88.4084 28.317 88.6451 28.0747 88.9438 27.8977C89.2542 27.7207 89.5917 27.6322 89.9564 27.6322H99.8998V28.9673H89.9564C89.7779 28.9673 89.6228 29.0327 89.4908 29.1635C89.3706 29.2827 89.3085 29.4328 89.3085 29.6098V37.5278C89.3085 37.7048 89.3706 37.8587 89.4908 37.9895C89.6228 38.1087 89.7779 38.1703 89.9564 38.1703H99.8998V39.5053H89.9564V39.5092Z" fill="#555555"/>
<path d="M75.2643 39.5092V27.636H86.1893V28.9711H76.6106V32.8955H84.3116V34.2498H76.6106V38.1741H86.1893V39.5092H75.2643Z" fill="#555555"/>
<path d="M67.3344 39.5092V28.9711H62.0116V27.636H73.9841V28.9711H68.6806V39.5092H67.3344Z" fill="#555555"/>
</g>
<defs>
<clipPath id="clip0_36_100">
<rect width="215.357" height="46.65" fill="white"/>
</clipPath>
</defs>
</svg>
