<svg width="36" height="36" viewBox="0 0 36 36" fill="none" xmlns="http://www.w3.org/2000/svg">
<path d="M4 0.5H32C33.933 0.5 35.5 2.067 35.5 4V32C35.5 33.933 33.933 35.5 32 35.5H4C2.067 35.5 0.5 33.933 0.5 32V4C0.5 2.067 2.067 0.5 4 0.5Z" fill="#FCFCFC"/>
<path d="M4 0.5H32C33.933 0.5 35.5 2.067 35.5 4V32C35.5 33.933 33.933 35.5 32 35.5H4C2.067 35.5 0.5 33.933 0.5 32V4C0.5 2.067 2.067 0.5 4 0.5Z" stroke="#C9D4E3"/>
<path d="M10.916 13.8335H12.9993" stroke="#595959" stroke-width="1.25" stroke-linecap="round" stroke-linejoin="round"/>
<path d="M10.916 22.1665H15.0827" stroke="#595959" stroke-width="1.25" stroke-linecap="round" stroke-linejoin="round"/>
<path d="M23 22.1665H25.0833" stroke="#595959" stroke-width="1.25" stroke-linecap="round" stroke-linejoin="round"/>
<path d="M20.916 13.8335H25.0827" stroke="#595959" stroke-width="1.25" stroke-linecap="round" stroke-linejoin="round"/>
<path d="M17.1667 11.3335H13.8333C13.3731 11.3335 13 11.7066 13 12.1668V15.5002C13 15.9604 13.3731 16.3335 13.8333 16.3335H17.1667C17.6269 16.3335 18 15.9604 18 15.5002V12.1668C18 11.7066 17.6269 11.3335 17.1667 11.3335Z" stroke="#595959" stroke-width="1.25" stroke-linejoin="round"/>
<path d="M22.1667 19.6665H18.8333C18.3731 19.6665 18 20.0396 18 20.4998V23.8332C18 24.2934 18.3731 24.6665 18.8333 24.6665H22.1667C22.6269 24.6665 23 24.2934 23 23.8332V20.4998C23 20.0396 22.6269 19.6665 22.1667 19.6665Z" stroke="#595959" stroke-width="1.25" stroke-linejoin="round"/>
</svg>
