<svg width="22" height="23" viewBox="0 0 22 23" fill="none" xmlns="http://www.w3.org/2000/svg">
<rect y="0.5" width="22" height="22" rx="5" fill="#FBDFDF"/>
<path d="M14.5292 7.02863C14.7895 6.76829 15.2115 6.76829 15.4718 7.02863C15.7322 7.28899 15.7322 7.71099 15.4718 7.97135L11.9426 11.5L15.4712 15.0287L15.5174 15.0794C15.7308 15.3413 15.7152 15.7273 15.4712 15.9713C15.2271 16.2154 14.8411 16.2305 14.5792 16.0169L14.5285 15.9713L10.9998 12.4427L7.4725 15.9707C7.21215 16.2311 6.79015 16.231 6.52979 15.9707C6.26945 15.7103 6.26945 15.2883 6.52979 15.028L10.0571 11.5L6.52914 7.97199L6.48357 7.92121C6.26997 7.65938 6.28509 7.27338 6.52914 7.02929C6.77313 6.78529 7.15923 6.76973 7.42107 6.98306L7.47185 7.02929L10.9998 10.5573L14.5292 7.02863Z" fill="#CF1717"/>
</svg>
