<svg width="22" height="23" viewBox="0 0 22 23" fill="none" xmlns="http://www.w3.org/2000/svg">
<rect y="0.5" width="22" height="22" rx="5" fill="#F2F4F8"/>
<path fill-rule="evenodd" clip-rule="evenodd" d="M11 12.5052C10.4477 12.5052 10 12.0575 10 11.5052V11.4992C10 10.9469 10.4477 10.4992 11 10.4992C11.5523 10.4992 12 10.9469 12 11.4992V11.5052C12 12.0575 11.5523 12.5052 11 12.5052Z" fill="#0D0D0D"/>
<path fill-rule="evenodd" clip-rule="evenodd" d="M11 8.50531C10.4477 8.50531 10 8.05758 10 7.50531V7.49931C10 6.94704 10.4477 6.49931 11 6.49931C11.5523 6.49931 12 6.94704 12 7.49931V7.50531C12 8.05758 11.5523 8.50531 11 8.50531Z" fill="#0D0D0D"/>
<path fill-rule="evenodd" clip-rule="evenodd" d="M11 16.5001C10.4477 16.5001 10 16.0524 10 15.5001V15.4941C10 14.9418 10.4477 14.4941 11 14.4941C11.5523 14.4941 12 14.9418 12 15.4941V15.5001C12 16.0524 11.5523 16.5001 11 16.5001Z" fill="#0D0D0D"/>
</svg>
