<svg width="16" height="16" viewBox="0 0 16 16" fill="none" xmlns="http://www.w3.org/2000/svg">
<path d="M11.5292 3.52863C11.7895 3.26829 12.2115 3.26829 12.4718 3.52863C12.7322 3.78899 12.7322 4.21099 12.4718 4.47135L8.94257 8L12.4712 11.5287L12.5174 11.5794C12.7308 11.8413 12.7152 12.2273 12.4712 12.4713C12.2271 12.7154 11.8411 12.7305 11.5792 12.5169L11.5285 12.4713L7.99984 8.94267L4.4725 12.4707C4.21215 12.7311 3.79015 12.731 3.52979 12.4707C3.26945 12.2103 3.26945 11.7883 3.52979 11.528L7.05711 8L3.52914 4.47199L3.48357 4.42121C3.26997 4.15938 3.28509 3.77338 3.52914 3.52929C3.77313 3.28529 4.15923 3.26973 4.42107 3.48306L4.47185 3.52929L7.99984 7.05727L11.5292 3.52863Z" fill="#0466C8"/>
</svg>
