<svg width="18" height="18" viewBox="0 0 18 18" fill="none" xmlns="http://www.w3.org/2000/svg">
<path d="M5.625 14.625C5.625 13.9008 5.8714 13.1682 6.47319 12.7653C7.19491 12.2821 8.0643 12 9 12C9.9357 12 10.8051 12.2821 11.5268 12.7653C12.1286 13.1682 12.375 13.9008 12.375 14.625" stroke="#FCFCFC" stroke-width="1.5" stroke-linecap="round" stroke-linejoin="round"/>
<path d="M9 10.125C10.0355 10.125 10.875 9.28553 10.875 8.25C10.875 7.21447 10.0355 6.375 9 6.375C7.96447 6.375 7.125 7.21447 7.125 8.25C7.125 9.28553 7.96447 10.125 9 10.125Z" stroke="#FCFCFC" stroke-width="1.5" stroke-linecap="round" stroke-linejoin="round"/>
<path d="M13.125 8.25C13.9576 8.25 14.7311 8.53268 15.3731 9.0168C15.9172 9.4272 16.125 10.1213 16.125 10.8029V10.875" stroke="#FCFCFC" stroke-width="1.5" stroke-linecap="round" stroke-linejoin="round"/>
<path d="M13.125 6.375C13.9534 6.375 14.625 5.70343 14.625 4.875C14.625 4.04657 13.9534 3.375 13.125 3.375C12.2966 3.375 11.625 4.04657 11.625 4.875C11.625 5.70343 12.2966 6.375 13.125 6.375Z" stroke="#FCFCFC" stroke-width="1.5" stroke-linecap="round" stroke-linejoin="round"/>
<path d="M4.875 8.25C4.0424 8.25 3.26884 8.53268 2.62692 9.0168C2.08279 9.4272 1.875 10.1213 1.875 10.8029V10.875" stroke="#FCFCFC" stroke-width="1.5" stroke-linecap="round" stroke-linejoin="round"/>
<path d="M4.875 6.375C5.70343 6.375 6.375 5.70343 6.375 4.875C6.375 4.04657 5.70343 3.375 4.875 3.375C4.04657 3.375 3.375 4.04657 3.375 4.875C3.375 5.70343 4.04657 6.375 4.875 6.375Z" stroke="#FCFCFC" stroke-width="1.5" stroke-linecap="round" stroke-linejoin="round"/>
</svg>
