<svg width="34" height="18" viewBox="0 0 34 18" fill="none" xmlns="http://www.w3.org/2000/svg">
<path d="M23.75 5.0625C23.75 3.5092 22.4908 2.25 20.9375 2.25C19.3842 2.25 18.125 3.5092 18.125 5.0625C18.125 6.6158 19.3842 7.875 20.9375 7.875C22.4908 7.875 23.75 6.6158 23.75 5.0625Z" stroke="#595959" stroke-width="1.5"/>
<path d="M15.875 5.0625C15.875 3.5092 14.6158 2.25 13.0625 2.25C11.5092 2.25 10.25 3.5092 10.25 5.0625C10.25 6.6158 11.5092 7.875 13.0625 7.875C14.6158 7.875 15.875 6.6158 15.875 5.0625Z" stroke="#595959" stroke-width="1.5"/>
<path d="M23.75 12.9375C23.75 11.3842 22.4908 10.125 20.9375 10.125C19.3842 10.125 18.125 11.3842 18.125 12.9375C18.125 14.4908 19.3842 15.75 20.9375 15.75C22.4908 15.75 23.75 14.4908 23.75 12.9375Z" stroke="#595959" stroke-width="1.5"/>
<path d="M15.875 12.9375C15.875 11.3842 14.6158 10.125 13.0625 10.125C11.5092 10.125 10.25 11.3842 10.25 12.9375C10.25 14.4908 11.5092 15.75 13.0625 15.75C14.6158 15.75 15.875 14.4908 15.875 12.9375Z" stroke="#595959" stroke-width="1.5"/>
</svg>
