<svg width="36" height="36" viewBox="0 0 36 36" fill="none" xmlns="http://www.w3.org/2000/svg">
<path d="M4 0.5H32C33.933 0.5 35.5 2.067 35.5 4V32C35.5 33.933 33.933 35.5 32 35.5H4C2.067 35.5 0.5 33.933 0.5 32V4C0.5 2.067 2.067 0.5 4 0.5Z" fill="#FCFCFC"/>
<path d="M4 0.5H32C33.933 0.5 35.5 2.067 35.5 4V32C35.5 33.933 33.933 35.5 32 35.5H4C2.067 35.5 0.5 33.933 0.5 32V4C0.5 2.067 2.067 0.5 4 0.5Z" stroke="#C9D4E3"/>
<path d="M24.25 12.5835L23.7336 20.9377C23.6016 23.0722 23.5357 24.1394 23.0007 24.9067C22.7361 25.2861 22.3956 25.6062 22.0006 25.8468C21.2017 26.3335 20.1325 26.3335 17.9939 26.3335C15.8526 26.3335 14.7819 26.3335 13.9825 25.8459C13.5873 25.6049 13.2467 25.2842 12.9822 24.9042C12.4474 24.1357 12.3829 23.0669 12.2538 20.9295L11.75 12.5835" stroke="#CF1717" stroke-width="1.5" stroke-linecap="round"/>
<path d="M10.5 12.5832H25.5M21.3797 12.5832L20.8109 11.4096C20.433 10.6301 20.244 10.2403 19.9181 9.99718C19.8458 9.94325 19.7693 9.89529 19.6892 9.85375C19.3283 9.6665 18.8951 9.6665 18.0287 9.6665C17.1407 9.6665 16.6967 9.6665 16.3297 9.8616C16.2484 9.90485 16.1708 9.95475 16.0977 10.0108C15.768 10.2638 15.5839 10.6678 15.2155 11.4759L14.7108 12.5832" stroke="#CF1717" stroke-width="1.5" stroke-linecap="round"/>
<path d="M15.916 21.75V16.75" stroke="#CF1717" stroke-width="1.5" stroke-linecap="round"/>
<path d="M20.084 21.75V16.75" stroke="#CF1717" stroke-width="1.5" stroke-linecap="round"/>
</svg>
