<svg width="23" height="22" viewBox="0 0 23 22" fill="none" xmlns="http://www.w3.org/2000/svg">
<rect x="0.201172" width="22" height="22" rx="5" fill="#C9D4E3"/>
<path d="M8.00969 11.256C7.57769 11.256 7.18969 11.176 6.84569 11.016C6.50969 10.848 6.24169 10.596 6.04169 10.26C5.84969 9.916 5.75369 9.492 5.75369 8.988C5.75369 8.564 5.81769 8.204 5.94569 7.908C6.07369 7.612 6.24569 7.376 6.46169 7.2C6.68569 7.024 6.93369 6.896 7.20569 6.816C7.47769 6.728 7.75769 6.684 8.04569 6.684C8.46969 6.684 8.84969 6.768 9.18569 6.936C9.52969 7.104 9.80169 7.356 10.0017 7.692C10.2017 8.028 10.3017 8.452 10.3017 8.964C10.3017 9.524 10.1897 9.976 9.96569 10.32C9.74169 10.656 9.45369 10.896 9.10169 11.04C8.74969 11.184 8.38569 11.256 8.00969 11.256ZM8.05769 10.104C8.21769 10.104 8.37369 10.068 8.52569 9.996C8.67769 9.924 8.80169 9.812 8.89769 9.66C8.99369 9.5 9.04169 9.284 9.04169 9.012C9.04169 8.724 8.98969 8.496 8.88569 8.328C8.78169 8.152 8.64969 8.028 8.48969 7.956C8.32969 7.876 8.16569 7.836 7.99769 7.836C7.82969 7.836 7.66969 7.876 7.51769 7.956C7.36569 8.028 7.24169 8.144 7.14569 8.304C7.05769 8.456 7.01369 8.668 7.01369 8.94C7.01369 9.212 7.06169 9.436 7.15769 9.612C7.26169 9.788 7.39369 9.916 7.55369 9.996C7.71369 10.068 7.88169 10.104 8.05769 10.104ZM14.3457 15.432C13.9217 15.432 13.5377 15.348 13.1937 15.18C12.8577 15.012 12.5897 14.76 12.3897 14.424C12.1977 14.088 12.1017 13.668 12.1017 13.164C12.1017 12.74 12.1657 12.38 12.2937 12.084C12.4217 11.788 12.5937 11.552 12.8097 11.376C13.0337 11.192 13.2817 11.06 13.5537 10.98C13.8257 10.9 14.1017 10.86 14.3817 10.86C14.8137 10.86 15.1977 10.944 15.5337 11.112C15.8777 11.272 16.1497 11.524 16.3497 11.868C16.5497 12.204 16.6497 12.628 16.6497 13.14C16.6497 13.7 16.5337 14.148 16.3017 14.484C16.0777 14.82 15.7897 15.06 15.4377 15.204C15.0937 15.356 14.7297 15.432 14.3457 15.432ZM14.4057 14.28C14.5657 14.28 14.7217 14.244 14.8737 14.172C15.0257 14.1 15.1497 13.988 15.2457 13.836C15.3417 13.676 15.3897 13.46 15.3897 13.188C15.3897 12.892 15.3377 12.66 15.2337 12.492C15.1297 12.324 14.9977 12.204 14.8377 12.132C14.6777 12.052 14.5137 12.012 14.3457 12.012C14.1777 12.012 14.0177 12.048 13.8657 12.12C13.7137 12.192 13.5897 12.308 13.4937 12.468C13.4057 12.628 13.3617 12.844 13.3617 13.116C13.3617 13.388 13.4097 13.612 13.5057 13.788C13.6097 13.956 13.7417 14.08 13.9017 14.16C14.0617 14.24 14.2297 14.28 14.4057 14.28ZM8.00969 15L12.7617 7.08H14.2497L9.49769 15H8.00969Z" fill="#0466C8"/>
</svg>
