<svg width="10" height="15" viewBox="0 0 10 15" fill="none" xmlns="http://www.w3.org/2000/svg">
<path d="M5.3018 14.1868C5.3699 14.1569 5.43447 14.1163 5.49305 14.0652C5.5073 14.0527 5.52102 14.0398 5.5343 14.0264L9.28032 10.2804C9.5732 9.98745 9.5732 9.51262 9.28032 9.21968C8.98745 8.9268 8.51255 8.9268 8.21967 9.21968L5.75 11.6894V1.5C5.75 1.08579 5.41422 0.75 5 0.75C4.58577 0.75 4.25 1.08579 4.25 1.5V11.6894L1.78033 9.21968C1.48744 8.9268 1.01256 8.9268 0.719674 9.21968C0.426777 9.51255 0.426777 9.98745 0.719667 10.2803L4.46967 14.0303C4.54497 14.1057 4.63235 14.1616 4.72557 14.1982C4.7987 14.227 4.87737 14.2445 4.9595 14.249C4.97292 14.2496 4.98642 14.25 5 14.25" fill="#008000"/>
</svg>
