<svg width="19" height="18" viewBox="0 0 19 18" fill="none" xmlns="http://www.w3.org/2000/svg">
<path d="M2.53326 6.375H11.5333C13.6546 6.375 14.7152 6.375 15.3742 7.03401C16.0333 7.69305 16.0333 8.7537 16.0333 10.875V11.625C16.0333 13.7463 16.0333 14.8069 15.3742 15.466C14.7152 16.125 13.6546 16.125 11.5333 16.125H7.03326C4.91194 16.125 3.85128 16.125 3.19227 15.466C2.53326 14.8069 2.53326 13.7463 2.53326 11.625V6.375Z" stroke="#595959" stroke-width="1.5" stroke-linecap="round" stroke-linejoin="round"/>
<path d="M11.5333 6.37375V3.08273C11.5333 2.41572 10.9925 1.875 10.3255 1.875C10.1335 1.875 9.94416 1.92081 9.77331 2.00863L3.10499 5.43695C2.75394 5.61743 2.53326 5.97902 2.53326 6.37375" stroke="#595959" stroke-width="1.5" stroke-linecap="round" stroke-linejoin="round"/>
<path d="M13.4083 11.625C13.6153 11.625 13.7833 11.4571 13.7833 11.25C13.7833 11.0429 13.6153 10.875 13.4083 10.875M13.4083 11.625C13.2012 11.625 13.0333 11.4571 13.0333 11.25C13.0333 11.0429 13.2012 10.875 13.4083 10.875M13.4083 11.625V10.875" stroke="#595959" stroke-width="1.5" stroke-linecap="round" stroke-linejoin="round"/>
</svg>
