<svg width="10" height="15" viewBox="0 0 10 15" fill="none" xmlns="http://www.w3.org/2000/svg">
<path d="M5.3018 0.813225C5.3699 0.843074 5.43447 0.883651 5.49305 0.934801C5.5073 0.94725 5.52102 0.960225 5.5343 0.97365L9.28032 4.7196C9.5732 5.01255 9.5732 5.48738 9.28032 5.78032C8.98745 6.0732 8.51255 6.0732 8.21967 5.78032L5.75 3.31065V13.5C5.75 13.9142 5.41422 14.25 5 14.25C4.58577 14.25 4.25 13.9142 4.25 13.5V3.31065L1.78033 5.78032C1.48744 6.0732 1.01256 6.0732 0.719674 5.78032C0.426777 5.48745 0.426777 5.01255 0.719667 4.71968L4.46967 0.969675C4.54497 0.8943 4.63235 0.83835 4.72557 0.80175C4.7987 0.773026 4.87737 0.755475 4.9595 0.75105C4.97292 0.750375 4.98642 0.75 5 0.75" fill="#CF1717"/>
</svg>
