<svg width="20" height="20" viewBox="0 0 20 20" fill="none" xmlns="http://www.w3.org/2000/svg">
<path d="M2.91602 5.83334H4.99935" stroke="#595959" stroke-width="1.25" stroke-linecap="round" stroke-linejoin="round"/>
<path d="M2.91602 14.1667H7.08268" stroke="#595959" stroke-width="1.25" stroke-linecap="round" stroke-linejoin="round"/>
<path d="M15 14.1667H17.0833" stroke="#595959" stroke-width="1.25" stroke-linecap="round" stroke-linejoin="round"/>
<path d="M12.916 5.83334H17.0827" stroke="#595959" stroke-width="1.25" stroke-linecap="round" stroke-linejoin="round"/>
<path d="M9.16667 3.33334H5.83333C5.3731 3.33334 5 3.70644 5 4.16668V7.50001C5 7.96024 5.3731 8.33334 5.83333 8.33334H9.16667C9.62692 8.33334 10 7.96024 10 7.50001V4.16668C10 3.70644 9.62692 3.33334 9.16667 3.33334Z" stroke="#595959" stroke-width="1.25" stroke-linejoin="round"/>
<path d="M14.1667 11.6667H10.8333C10.3731 11.6667 10 12.0397 10 12.5V15.8333C10 16.2936 10.3731 16.6667 10.8333 16.6667H14.1667C14.6269 16.6667 15 16.2936 15 15.8333V12.5C15 12.0397 14.6269 11.6667 14.1667 11.6667Z" stroke="#595959" stroke-width="1.25" stroke-linejoin="round"/>
</svg>
