<svg width="36" height="36" viewBox="0 0 36 36" fill="none" xmlns="http://www.w3.org/2000/svg">
<path d="M4 0.5H32C33.933 0.5 35.5 2.067 35.5 4V32C35.5 33.933 33.933 35.5 32 35.5H4C2.067 35.5 0.5 33.933 0.5 32V4C0.5 2.067 2.067 0.5 4 0.5Z" fill="#FCFCFC"/>
<path d="M4 0.5H32C33.933 0.5 35.5 2.067 35.5 4V32C35.5 33.933 33.933 35.5 32 35.5H4C2.067 35.5 0.5 33.933 0.5 32V4C0.5 2.067 2.067 0.5 4 0.5Z" stroke="#C9D4E3"/>
<path d="M10.5 18C10.5 15.2332 10.5 13.8497 11.1104 12.8691C11.3362 12.5063 11.6167 12.1907 11.9392 11.9367C12.8109 11.25 14.0406 11.25 16.5 11.25H19.5C21.9594 11.25 23.1891 11.25 24.0608 11.9367C24.3833 12.1907 24.6638 12.5063 24.8896 12.8691C25.5 13.8497 25.5 15.2332 25.5 18C25.5 20.7668 25.5 22.1503 24.8896 23.1309C24.6638 23.4937 24.3833 23.8093 24.0608 24.0634C23.1891 24.75 21.9594 24.75 19.5 24.75H16.5C14.0406 24.75 12.8109 24.75 11.9392 24.0634C11.6167 23.8093 11.3362 23.4937 11.1104 23.1309C10.5 22.1503 10.5 20.7668 10.5 18Z" stroke="#595959" stroke-width="1.5"/>
<path d="M16.125 11.25V24.75" stroke="#595959" stroke-width="1.5" stroke-linejoin="round"/>
<path d="M12.75 14.25H13.5M12.75 16.5H13.5" stroke="#595959" stroke-width="1.5" stroke-linecap="round" stroke-linejoin="round"/>
</svg>
