<svg width="19" height="18" viewBox="0 0 19 18" fill="none" xmlns="http://www.w3.org/2000/svg">
<path d="M15.2953 1.5C14.4602 1.5 13.7833 3.51472 13.7833 6H15.2953C16.024 6 16.3883 6 16.6138 5.74841C16.8394 5.49682 16.8001 5.1655 16.7216 4.50286C16.5143 2.75357 15.954 1.5 15.2953 1.5Z" stroke="#FCFCFC" stroke-width="1.5"/>
<path d="M13.7833 6.0407V13.9843C13.7833 15.1181 13.7833 15.685 13.4368 15.9081C12.8706 16.2728 11.9953 15.5081 11.5551 15.2305C11.1913 15.0011 11.0095 14.8864 10.8076 14.8798C10.5895 14.8726 10.4044 14.9826 10.0114 15.2305L8.57826 16.1343C8.19164 16.378 7.99836 16.5 7.78326 16.5C7.56817 16.5 7.37486 16.378 6.98826 16.1343L5.55511 15.2305C5.19138 15.0011 5.00951 14.8864 4.80766 14.8798C4.58955 14.8726 4.40446 14.9826 4.01142 15.2305C3.57123 15.5081 2.69592 16.2728 2.12973 15.9081C1.78326 15.685 1.78326 15.1181 1.78326 13.9843V6.0407C1.78326 3.90019 1.78326 2.82994 2.44227 2.16497C3.10128 1.5 4.16194 1.5 6.28326 1.5H15.2833" stroke="#FCFCFC" stroke-width="1.5" stroke-linecap="round" stroke-linejoin="round"/>
<path d="M4.78326 4.5H10.7833" stroke="#FCFCFC" stroke-width="1.5" stroke-linecap="round" stroke-linejoin="round"/>
<path d="M6.28326 7.5H4.78326" stroke="#FCFCFC" stroke-width="1.5" stroke-linecap="round" stroke-linejoin="round"/>
<path d="M9.65826 8.15625C9.03696 8.15625 8.53326 8.59695 8.53326 9.14063C8.53326 9.6843 9.03696 10.125 9.65826 10.125C10.2796 10.125 10.7833 10.5657 10.7833 11.1094C10.7833 11.6531 10.2796 12.0938 9.65826 12.0938M9.65826 8.15625C10.1481 8.15625 10.5648 8.43015 10.7192 8.8125M9.65826 8.15625V7.5M9.65826 12.0938C9.16844 12.0938 8.75174 11.8199 8.59731 11.4375M9.65826 12.0938V12.75" stroke="#FCFCFC" stroke-width="1.5" stroke-linecap="round"/>
</svg>
