<svg width="21" height="21" viewBox="0 0 21 21" fill="none" xmlns="http://www.w3.org/2000/svg">
<path fill-rule="evenodd" clip-rule="evenodd" d="M3.24372 2.00628C2.902 1.66457 2.34799 1.66457 2.00628 2.00628C1.66457 2.34799 1.66457 2.90201 2.00628 3.24372L4.68789 5.92532C4.68182 5.93015 4.67574 5.93497 4.66968 5.9398C3.08228 7.20413 1.86069 8.81116 1.16303 10.2065C1.07066 10.3912 1.07066 10.6088 1.16303 10.7935C1.86069 12.1888 3.08228 13.7959 4.66968 15.0602C6.25839 16.3256 8.25769 17.2812 10.5 17.2812C12.0871 17.2812 13.5524 16.8025 14.8366 16.074L17.7563 18.9937C18.098 19.3354 18.652 19.3354 18.9937 18.9937C19.3354 18.652 19.3354 18.098 18.9937 17.7563L3.24372 2.00628ZM12.0886 13.3262L7.67388 8.91135C7.38508 9.394 7.21875 9.95899 7.21875 10.5622C7.21875 12.34 8.65997 13.7812 10.4378 13.7812C11.041 13.7812 11.606 13.6149 12.0886 13.3262ZM17.299 14.2054C18.4173 13.1167 19.2888 11.8898 19.8369 10.7935C19.9293 10.6088 19.9293 10.3912 19.8369 10.2065C19.1393 8.81116 17.9177 7.20413 16.3303 5.9398C14.7416 4.67442 12.7423 3.71875 10.5 3.71875C9.40835 3.71875 8.37435 3.94524 7.41725 4.32371L17.299 14.2054Z" fill="#595959"/>
</svg>
