<svg width="17" height="17" viewBox="0 0 17 17" fill="none" xmlns="http://www.w3.org/2000/svg">
<rect width="17" height="17" rx="2" fill="#0466C8"/>
<g clip-path="url(#clip0_87_13101)">
<path d="M6.5648 11C5.68017 11 5.23785 11 4.92294 10.8112C4.71712 10.6878 4.55131 10.5113 4.4443 10.3018C4.28056 9.98117 4.32458 9.55725 4.4126 8.70942C4.48608 8.00167 4.52282 7.64777 4.7035 7.38788C4.82212 7.21724 4.98256 7.07739 5.17064 6.98068C5.4571 6.83337 5.82634 6.83337 6.5648 6.83337H10.4365C11.175 6.83337 11.5442 6.83337 11.8307 6.98068C12.0187 7.07739 12.1792 7.21724 12.2978 7.38788C12.4785 7.64777 12.5152 8.00167 12.5887 8.70942C12.6767 9.55725 12.7207 9.98117 12.557 10.3018C12.45 10.5113 12.2842 10.6878 12.0784 10.8112C11.7634 11 11.3212 11 10.4365 11" stroke="#FCFCFC" stroke-width="0.75"/>
<path d="M10.5827 6.83337V6.00004C10.5827 5.21437 10.5827 4.82153 10.3386 4.57745C10.0945 4.33337 9.70168 4.33337 8.91602 4.33337H8.08268C7.29701 4.33337 6.90417 4.33337 6.66009 4.57745C6.41602 4.82153 6.41602 5.21437 6.41602 6.00004V6.83337" stroke="#FCFCFC" stroke-width="0.75" stroke-linejoin="round"/>
<path d="M9.32797 10.1666H7.67072C7.38519 10.1666 7.24242 10.1666 7.12095 10.212C6.95898 10.2725 6.82029 10.39 6.72693 10.5458C6.65691 10.6626 6.62229 10.8129 6.55303 11.1135C6.44482 11.5831 6.39072 11.8179 6.42751 12.0062C6.47658 12.2572 6.6295 12.4697 6.84207 12.5822C7.00149 12.6666 7.22457 12.6666 7.67072 12.6666H9.32797C9.77414 12.6666 9.99722 12.6666 10.1566 12.5822C10.3692 12.4697 10.5221 12.2572 10.5712 12.0062C10.608 11.8179 10.5539 11.5831 10.4457 11.1135C10.3764 10.8129 10.3418 10.6626 10.2718 10.5458C10.1784 10.39 10.0397 10.2725 9.87777 10.212C9.75627 10.1666 9.61352 10.1666 9.32797 10.1666Z" stroke="#FCFCFC" stroke-width="0.75" stroke-linejoin="round"/>
<path d="M11 8.5H11.0045" stroke="#FCFCFC" stroke-linecap="round" stroke-linejoin="round"/>
</g>
<defs>
<clipPath id="clip0_87_13101">
<rect width="10" height="10" fill="white" transform="translate(3.5 3.5)"/>
</clipPath>
</defs>
</svg>
