<svg width="19" height="18" viewBox="0 0 19 18" fill="none" xmlns="http://www.w3.org/2000/svg">
<path d="M11.9083 9C11.9083 10.4498 10.733 11.625 9.28326 11.625C7.83351 11.625 6.65826 10.4498 6.65826 9C6.65826 7.55025 7.83351 6.375 9.28326 6.375C10.733 6.375 11.9083 7.55025 11.9083 9Z" stroke="#FCFCFC" stroke-width="1.3125"/>
<path d="M16.7833 10.4752V7.5249C14.6407 7.5249 13.2475 5.19781 14.3323 3.35018L11.7342 1.87507C10.6361 3.74554 7.93161 3.74546 6.83349 1.875L4.23541 3.35011C5.32016 5.19776 3.92581 7.5249 1.78326 7.5249V10.4752C3.92577 10.4752 5.31895 12.8023 4.23423 14.6499L6.8323 16.125C7.93094 14.2536 10.6367 14.2535 11.7354 16.1249L14.3335 14.6498C13.2488 12.8022 14.6408 10.4752 16.7833 10.4752Z" stroke="#FCFCFC" stroke-width="1.3125" stroke-linecap="round" stroke-linejoin="round"/>
</svg>
