<svg width="18" height="18" viewBox="0 0 18 18" fill="none" xmlns="http://www.w3.org/2000/svg">
<path d="M3.25564 12.6586L2.38339 7.45168C2.24152 6.60472 2.17058 6.18125 2.38903 5.90312C2.60746 5.625 3.01101 5.625 3.81809 5.625H14.1819C14.989 5.625 15.3925 5.625 15.6109 5.90312C15.8294 6.18125 15.7585 6.60472 15.6166 7.45168L14.7443 12.6586C14.4367 14.4948 14.283 15.4129 13.6739 15.9564C13.0649 16.5 12.19 16.5 10.4403 16.5H7.5597C5.80998 16.5 4.9351 16.5 4.32607 15.9564C3.71702 15.4129 3.56323 14.4948 3.25564 12.6586Z" stroke="#595959" stroke-width="1.5"/>
<path d="M5.25 5.625V5.25C5.25 3.17893 6.92893 1.5 9 1.5C11.071 1.5 12.75 3.17893 12.75 5.25V5.625" stroke="#595959" stroke-width="1.5"/>
<path d="M3.375 13.125H14.625" stroke="#595959" stroke-width="1.5"/>
</svg>
