<svg width="36" height="36" viewBox="0 0 36 36" fill="none" xmlns="http://www.w3.org/2000/svg">
<path d="M4 0.5H32C33.933 0.5 35.5 2.067 35.5 4V32C35.5 33.933 33.933 35.5 32 35.5H4C2.067 35.5 0.5 33.933 0.5 32V4C0.5 2.067 2.067 0.5 4 0.5Z" fill="#FCFCFC"/>
<path d="M4 0.5H32C33.933 0.5 35.5 2.067 35.5 4V32C35.5 33.933 33.933 35.5 32 35.5H4C2.067 35.5 0.5 33.933 0.5 32V4C0.5 2.067 2.067 0.5 4 0.5Z" stroke="#C9D4E3"/>
<path d="M17.9961 18H18.0036" stroke="#595959" stroke-width="2.5" stroke-linecap="round" stroke-linejoin="round"/>
<path d="M23 18H23.0075" stroke="#595959" stroke-width="2.5" stroke-linecap="round" stroke-linejoin="round"/>
<path d="M13 18H13.0075" stroke="#595959" stroke-width="2.5" stroke-linecap="round" stroke-linejoin="round"/>
</svg>
