<svg width="21" height="22" viewBox="0 0 21 22" fill="none" xmlns="http://www.w3.org/2000/svg">
<path fill-rule="evenodd" clip-rule="evenodd" d="M9.18164 11C9.18164 10.2752 9.76929 9.6875 10.4941 9.6875H10.502C11.2269 9.6875 11.8145 10.2752 11.8145 11C11.8145 11.7248 11.2269 12.3125 10.502 12.3125H10.4941C9.76929 12.3125 9.18164 11.7248 9.18164 11Z" fill="#0D0D0D"/>
<path fill-rule="evenodd" clip-rule="evenodd" d="M14.4297 11C14.4297 10.2752 15.0173 9.6875 15.7422 9.6875H15.7501C16.4749 9.6875 17.0626 10.2752 17.0626 11C17.0626 11.7248 16.4749 12.3125 15.7501 12.3125H15.7422C15.0173 12.3125 14.4297 11.7248 14.4297 11Z" fill="#0D0D0D"/>
<path fill-rule="evenodd" clip-rule="evenodd" d="M3.9375 11C3.9375 10.2752 4.52512 9.6875 5.25 9.6875H5.25786C5.98273 9.6875 6.57036 10.2752 6.57036 11C6.57036 11.7248 5.98273 12.3125 5.25786 12.3125H5.25C4.52512 12.3125 3.9375 11.7248 3.9375 11Z" fill="#0D0D0D"/>
</svg>
